<?xml version="1.0" encoding="utf-8"?>
<!-- Generator: Adobe Illustrator 15.1.0, SVG Export Plug-In . SVG Version: 6.00 Build 0)  -->
<!DOCTYPE svg PUBLIC "-//W3C//DTD SVG 1.1//EN" "http://www.w3.org/Graphics/SVG/1.1/DTD/svg11.dtd">
<svg version="1.1" id="Layer_1" xmlns="http://www.w3.org/2000/svg" xmlns:xlink="http://www.w3.org/1999/xlink" x="0px" y="0px"
	 width="337.5px" height="350px" viewBox="0 0 337.5 350" enable-background="new 0 0 337.5 350" xml:space="preserve">
<circle fill="#E57026" cx="168.292" cy="178.168" r="148.119"/>
<g>
	<path fill-rule="evenodd" clip-rule="evenodd" fill="#97442A" d="M191.48,30.926c-0.34,6.725-7.807,6.325-9.977,11.225
		c1.334,5.116,2.076,11.488-1.248,14.965c-4.289,2.744-12.762,0.807-17.46,0c-3.879,2.357-1.561,10.912-3.74,14.967
		c-15.499,21.55-23.882,56.702-58.619,54.875c-2.414-13.697,10.483-23.233,1.248-32.425c-23.402,1.309-41.757,30.266-62.359,8.729
		C63.356,54.5,118.984,18.925,191.48,30.926z"/>
	<path fill-rule="evenodd" clip-rule="evenodd" fill="#97442A" d="M240.122,47.139c40.991,23.863,69.899,59.809,76.079,118.482
		c-1.613,5.491-6.295-5.673-9.979-6.236c-3.041,5.237-20.443,11.747-18.707-2.493c5.384-1.489,6.989,4.084,9.978,1.248
		c1.05-5.626-2.919-6.229-3.743-9.979c-31.018-4.317-58.188-12.482-77.324-28.685c-0.287-13.267,11.537-27.127,19.953-37.415
		c2.058-2.514,3.011-5.291,7.484-4.989C240.438,67.833,246.438,56.975,240.122,47.139z"/>
	<path fill-rule="evenodd" clip-rule="evenodd" fill="#97442A" d="M197.717,75.824c4.41,3.841,7.438,15.398,2.496,21.202
		c-5.624-5.186-7.761-13.858-14.968-17.46C186.631,75.545,192.108,75.619,197.717,75.824z"/>
	<path fill-rule="evenodd" clip-rule="evenodd" fill="#97442A" d="M156.56,102.013c14.568,7.469,23.589,20.479,37.417,28.686
		c-6.618,14.527,5.918,37.563,0,59.866c-9.457,8.38-22.111,15.479-34.921,12.472c-14.699-3.451-16.044-19.874-19.957-34.921
		c-8.788-4.515-8.245-18.36-18.705-21.202c8.141-9.368,24.318-6.745,32.034-16.538C156.62,125.055,152.522,107.49,156.56,102.013z"
		/>
	<path fill-rule="evenodd" clip-rule="evenodd" fill="#97442A" d="M242.615,154.396c7.697,8.742,31.363,16.156,28.686,31.18
		c-2.24,12.572-14.725,5.551-24.941,4.989c-14.84-0.815-25.182,5.173-36.17,1.247C221.78,180.121,235.9,170.962,242.615,154.396z"/>
	<path fill-rule="evenodd" clip-rule="evenodd" fill="#97442A" d="M85.472,183.081c16.379,5.37,24.849,24.857,24.942,42.405
		C86.825,227.523,77.439,204.654,85.472,183.081z"/>
	<path fill-rule="evenodd" clip-rule="evenodd" fill="#97442A" d="M68.011,193.059c-4.494,7.988-5.467,19.63-4.988,26.191
		C47.67,218.445,58.544,188.082,68.011,193.059z"/>
	<path fill-rule="evenodd" clip-rule="evenodd" fill="#97442A" d="M69.258,195.553c5.752-0.599,9.442,5.553,6.237,9.978
		C69.965,205.91,66.643,199.389,69.258,195.553z"/>
	<path fill-rule="evenodd" clip-rule="evenodd" fill="#97442A" d="M68.011,205.53c4.955,9.181,13.393,14.878,17.461,24.944
		c10.035,1.606,14.947,8.332,18.708,16.213C83.642,247.848,64.114,224.713,68.011,205.53z"/>
	<path fill-rule="evenodd" clip-rule="evenodd" fill="#97442A" d="M281.28,232.971c9.956-6.309,20.583-0.08,27.438-11.228
		c-17.13,58.534-63.196,98.938-135.942,106.013c-3.897-3.577,4.409-5.496,4.988-8.73c-7.848-19.592-31.355-23.524-26.192-56.125
		c6.336-9.631,13.94-19.031,26.192-21.201c15.649-2.775,26.226,8.729,41.154,8.729c1.694-0.384,1.035-3.12,1.248-4.988
		c9.301,4.023,10.259-10.314,21.203-8.729c-4.291-6.104-13.186-7.602-22.451-8.731c1.179-5.888,4.164-9.972,7.484-13.718
		c18.711-4.663,27.447,4.832,47.394,11.225C275.846,226.143,279.748,229.763,281.28,232.971z"/>
	<path fill-rule="evenodd" clip-rule="evenodd" fill="#97442A" d="M104.18,232.971c1.663,0,3.326,0,4.989,0c0,2.492,0,4.987,0,7.48
		C106.814,238.647,103.64,237.666,104.18,232.971z"/>
	<path fill-rule="evenodd" clip-rule="evenodd" fill="#97442A" d="M81.728,241.699c1.64,0.441,1.963,2.195,3.744,2.496
		c-0.3,2.193-2.147,2.841-4.989,2.492C79.956,244.082,81.336,243.385,81.728,241.699z"/>
	<path fill-rule="evenodd" clip-rule="evenodd" fill="#97442A" d="M34.338,247.936c6.353-1.324,8.324,5.152,13.717,7.484
		c12.09,5.224,27.324,4.67,36.169,13.717c8.132,8.319,13.215,21.891,19.956,31.182c4.374,6.027,11.212,9.133,13.718,16.213
		C80.15,308.547,53.294,278.865,34.338,247.936z"/>
	<path fill-rule="evenodd" clip-rule="evenodd" fill="#97442A" d="M90.46,251.677c5.524,0.294,10.305,1.337,11.225,6.235
		C97.91,262.719,89.796,258.647,90.46,251.677z"/>
	<path fill-rule="evenodd" clip-rule="evenodd" fill="#97442A" d="M152.819,300.318c4.245,2.82,6.69,7.444,7.484,13.717
		c-1.451-0.203-2.219,0.276-2.496,1.248C151.495,314.783,147.936,304.502,152.819,300.318z"/>
</g>
</svg>
