<?xml version="1.0" encoding="utf-8"?>
<!-- Generator: Adobe Illustrator 15.1.0, SVG Export Plug-In . SVG Version: 6.00 Build 0)  -->
<!DOCTYPE svg PUBLIC "-//W3C//DTD SVG 1.1//EN" "http://www.w3.org/Graphics/SVG/1.1/DTD/svg11.dtd">
<svg version="1.1" id="Layer_1" xmlns="http://www.w3.org/2000/svg" xmlns:xlink="http://www.w3.org/1999/xlink" x="0px" y="0px"
	 width="911px" height="463px" viewBox="0 0 911 463" enable-background="new 0 0 911 463" xml:space="preserve">
<g>
	<path d="M85.376,287.106c-0.826,2.182-0.935,3.828-0.65,5.402c3.912,21.649,116.017-23.808,129.458,50.589
		c8.393,46.448-33.675,72.341-77.368,80.235c-46.842,8.463-93.446-4.254-100.061-40.861c-3.414-18.895,5.19-34.27,18.977-45.703
		c-9.584-3.552-16.446-10.035-18.58-21.844c-2.631-14.564,4.07-24.719,14.314-35.512c-18.272-8.893-30.92-24.899-34.619-45.368
		l-1.066-5.905c-6.899-38.182,20.542-70.78,68.959-79.528c16.926-3.058,32.918-2.289,46.188,1.411
		c5.322-24.538,10.767-30.399,17.458-31.609c14.564-2.631,25.215,6.826,26.496,13.912c0.782,4.33-0.868,8.692-4.165,12.946
		c-3.941,5.184-9.851,10.723-14.366,17.229c11.761,8.85,19.296,21.309,21.999,36.266l1.067,5.905
		c6.828,37.788-21.975,71.853-69.998,80.529C100.761,286.767,92.746,287.401,85.376,287.106z M119.307,209.436
		c-2.916-16.14-13.207-28.101-27.771-25.468c-14.17,2.56-19.625,17.365-16.709,33.504l0.996,5.512
		c3.129,17.319,13.42,29.28,27.984,26.648c13.777-2.488,19.768-16.578,16.567-34.292L119.307,209.436z M104.566,339.327
		c-9.632,7.432-13.185,17.016-11.478,26.463c2.916,16.139,19.833,22.025,35.578,19.18c15.745-2.844,29.461-14.672,26.758-29.629
		C152.153,337.233,129.47,337.673,104.566,339.327z"/>
	<path d="M231.327,27.97l44.33,257.409c1.629,9.461-10.539,21.298-27.489,24.217c-17.739,3.055-31.982-4.233-33.612-13.694
		l-44.33-257.41c-1.901-11.037,9.423-20.699,27.163-23.754C214.34,11.818,229.427,16.933,231.327,27.97z"/>
	<path d="M459.07,193.847l-0.01,28c-0.015,44.399-42.428,84.784-91.227,84.768c-48.8-0.018-90.786-40.031-90.77-84.83l0.01-28
		c0.015-44.799,40.829-83.984,90.827-83.967C416.7,109.833,459.086,147.848,459.07,193.847z M397.072,193.825
		c0.005-15.199-13.189-30.004-29.189-30.01c-16-0.005-28.805,14.791-28.811,29.99l-0.01,28c-0.005,16,12.789,30.804,28.789,30.809
		c16,0.006,29.205-14.789,29.211-30.789L397.072,193.825z"/>
	<path d="M648.767,227.526l-4.165,27.688c-6.605,43.906-54.545,77.55-102.803,70.289s-83.84-53.063-77.175-97.366l4.166-27.688
		c6.665-44.302,52.843-76.996,102.288-69.558C619.335,138.151,655.61,182.037,648.767,227.526z M587.456,218.302
		c2.261-15.031-8.591-31.63-24.413-34.01c-15.821-2.381-30.682,10.35-32.942,25.381l-4.165,27.689
		c-2.381,15.822,8.074,32.361,23.896,34.742s31.078-10.291,33.458-26.113L587.456,218.302z"/>
	<path d="M724.809,178.507l-0.838,9.162c10.582-14.698,31.448-27.653,56.544-25.359c40.233,3.678,67.845,44.359,63.658,90.17
		l-2.548,27.884c-4.042,44.216-39.984,81.501-77.031,78.114c-23.502-2.148-42.797-19.576-48.872-36.601l-8.702,95.204
		c-0.873,9.561-15.689,17.848-33.217,16.245s-29.4-12.327-28.526-21.888l21.772-238.211c1.019-11.153,14.855-17.521,31.188-16.027
		C714.569,158.692,725.828,167.353,724.809,178.507z M782.43,246.836c1.383-15.138-10.813-31.114-27.544-32.644
		c-14.341-1.311-30.099,8.496-31.81,27.219l-3.021,33.063c-0.619,6.771,10.018,26.623,27.545,28.225
		c15.535,1.42,30.861-12.443,32.281-27.979L782.43,246.836z"/>
</g>
<g>
	<path d="M880.029,139.362c9.871,0,21.283,7.421,21.283,22.612c0,15.611-11.973,22.893-21.703,22.893
		c-9.871,0-21.282-7.421-21.282-22.612C858.327,146.643,870.299,139.362,880.029,139.362z M880.029,144.263
		c-10.011,0-16.801,7.28-16.801,17.992c0,10.291,6.3,17.712,16.381,17.712c10.012,0,16.802-7.281,16.802-17.992
		C896.411,151.684,890.041,144.263,880.029,144.263z M871.979,150.773c0-0.91,0.7-1.75,1.75-1.75h7.071
		c4.55,0,8.54,1.891,8.54,7.561c0,3.781-1.89,6.16-4.41,7.141l4.131,7.561c0.07,0.141,0.07,0.351,0.07,0.49
		c0,1.471-1.541,2.871-2.871,2.871c-0.699,0-1.189-0.351-1.609-1.19l-4.41-8.821h-2.941v8.121c0,1.12-1.119,1.82-2.52,1.82
		s-2.801-0.631-2.801-1.82V150.773z M877.299,153.714v6.44h3.501c2.101,0,3.29-0.91,3.29-3.01c0-2.59-1.189-3.431-3.29-3.431
		H877.299z"/>
</g>
</svg>
